HIERARCHY
ROOT Hips
{
  OFFSET 51.7962 84.5984 36.2813
  CHANNELS 6 Xposition Yposition Zposition Zrotation Xrotation Yrotation
  JOINT spine
  {
    OFFSET 0 5.95438 0.342407
    CHANNELS 3 Zrotation Xrotation Yrotation
    JOINT spine1
    {
      OFFSET 0 8.85602 0
      CHANNELS 3 Zrotation Xrotation Yrotation
      JOINT spine2
      {
        OFFSET 0 8.48567 0
        CHANNELS 3 Zrotation Xrotation Yrotation
        JOINT Neck
        {
          OFFSET 0 21.7863 1.0387
          CHANNELS 3 Zrotation Xrotation Yrotation
          JOINT Head
          {
            OFFSET 0 6.5822 0
            CHANNELS 3 Zrotation Xrotation Yrotation
            End Site
            {
              OFFSET 0 15.9326 -5.25436
            }
          }
        }
        JOINT RightShoulder
        {
          OFFSET -3.57307 9.16386 -0.497525
          CHANNELS 3 Zrotation Xrotation Yrotation
          JOINT RightArm
          {
            OFFSET 0 12.0192 0
            CHANNELS 3 Zrotation Xrotation Yrotation
            JOINT RightArmRoll
            {
              OFFSET 0 6.06754 0
              CHANNELS 3 Zrotation Xrotation Yrotation
              JOINT RightForeArm
              {
                OFFSET 0 17.6726 0
                CHANNELS 3 Zrotation Xrotation Yrotation
                JOINT RightForeArmRoll
                {
                  OFFSET 0 6.80872 0
                  CHANNELS 3 Zrotation Xrotation Yrotation
                  JOINT RightHand
                  {
                    OFFSET 0 13.6636 0
                    CHANNELS 3 Zrotation Xrotation Yrotation
                    End Site
                    {
                      OFFSET 0 0 0
                    }
                  }
                }
              }
            }
          }
        }
        JOINT LeftShoulder
        {
          OFFSET 3.57307 9.16386 -0.497525
          CHANNELS 3 Zrotation Xrotation Yrotation
          JOINT LeftArm
          {
            OFFSET 0 12.0192 0
            CHANNELS 3 Zrotation Xrotation Yrotation
            JOINT LeftArmRoll
            {
              OFFSET 0 6.06755 0
              CHANNELS 3 Zrotation Xrotation Yrotation
              JOINT LeftForeArm
              {
                OFFSET 0 17.6726 0
                CHANNELS 3 Zrotation Xrotation Yrotation
                JOINT LeftForeArmRoll
                {
                  OFFSET 0 6.80872 0
                  CHANNELS 3 Zrotation Xrotation Yrotation
                  JOINT LeftHand
                  {
                    OFFSET 0 13.6636 0
                    CHANNELS 3 Zrotation Xrotation Yrotation
                    End Site
                    {
                      OFFSET 0 0 0
                    }
                  }
                }
              }
            }
          }
        }
      }
    }
  }
  JOINT RightUpLeg
  {
    OFFSET -5.27774 -0.967797 -0.811858
    CHANNELS 3 Zrotation Xrotation Yrotation
    JOINT RightUpLegRoll
    {
      OFFSET 0 16.0214 0
      CHANNELS 3 Zrotation Xrotation Yrotation
      JOINT RightLeg
      {
        OFFSET 0 -19.8401 0
        CHANNELS 3 Zrotation Xrotation Yrotation
        JOINT RightLegRoll
        {
          OFFSET 0 19.905 0
          CHANNELS 3 Zrotation Xrotation Yrotation
          JOINT RightFoot
          {
            OFFSET 0 16.5675 0
            CHANNELS 3 Zrotation Xrotation Yrotation
            JOINT RightToeBase
            {
              OFFSET 0 13.8496 0
              CHANNELS 3 Zrotation Xrotation Yrotation
              End Site
              {
                OFFSET 0.00587034 6.70727 -0.773117
              }
            }
          }
        }
      }
    }
  }
  JOINT LeftUpLeg
  {
    OFFSET 5.27774 -0.967797 -0.811858
    CHANNELS 3 Zrotation Xrotation Yrotation
    JOINT LeftUpLegRoll
    {
      OFFSET 0 16.0215 0
      CHANNELS 3 Zrotation Xrotation Yrotation
      JOINT LeftLeg
      {
        OFFSET 0 19.84 0
        CHANNELS 3 Zrotation Xrotation Yrotation
        JOINT LeftLegRoll
        {
          OFFSET 0 20.089 0
          CHANNELS 3 Zrotation Xrotation Yrotation
          JOINT LeftFoot
          {
            OFFSET 0 16.3835 0
            CHANNELS 3 Zrotation Xrotation Yrotation
            JOINT LeftToeBase
            {
              OFFSET 0 13.8496 0
              CHANNELS 3 Zrotation Xrotation Yrotation
              End Site
              {
                OFFSET -0.0263083 6.70727 -0.773117
              }
            }
          }
        }
      }
    }
  }
}
MOTION
Frames: 12
Frame Time: 0.00208333
49.5243 58.9682 -4.53244 -8.14109 29.0927 10.0043 0.911301 0.83942 0.120312 1.82817 5.67568 0.0904454 1.8308 7.32026 0.0608139 -5.39384 23.4126 -2.20425 6.7379 2.31231 -4.09194 60.8493 0.551468 0.156219 113.473 18.7699 -19.3398 -5.41128e-007 -1.99136e-006 -3.47127e-007 -4.04278 27.5541 -1.20955 -6.83092e-006 7.88373e-006 -3 8.0301 -4.95136 0.697635 -61.5342 -4.55055 2.95415 -125.958 39.9912 30.7883 -1.34704e-005 1.12988e-005 1.07827e-005 3.64955 -0.0279459 1.99255 7.31411e-007 -2.98242e-006 3.01161 -8.03009 -4.95138 -0.697616 -1.04291 76.4422 179.018 180 1.52582e-005 179.495 -179.202 70.5035 176.041 -5.50961e-007 1.71323e-006 1.42375 -20.7308 69.9522 21.33 8.13649 25.2327 -3.48773 25.6711 74.5323 159.991 4.61223e-006 2.57698e-005 -0.586522 13.5669 -69.0448 12.3096 -6.45113e-007 2.87007e-007 -1.27642 16.9314 64.3192 -16.8599 -8.13649 25.2326 3.48773 
49.5333 59.0186 -4.48198 -8.15608 29.2472 10.0297 0.911431 0.839101 0.120225 1.82852 5.67463 0.0905526 1.83114 7.31921 0.0608326 -5.37877 23.396 -2.22785 6.70955 2.24109 -4.1059 60.7738 0.532089 0.154361 113.563 18.8017 -19.4236 -5.41128e-007 -1.99136e-006 -3.47127e-007 -4.0401 27.4356 -1.21366 -6.83092e-006 7.88373e-006 -3 8.0301 -4.95136 0.697635 -61.4424 -4.55268 2.94917 -126.082 39.9619 30.8993 -1.34704e-005 1.12988e-005 1.07827e-005 3.64956 -0.0279471 1.99255 7.31411e-007 -2.98242e-006 3.01161 -8.03009 -4.95138 -0.697616 -1.06872 76.3593 179.019 180 1.52582e-005 179.498 -179.212 70.4786 176.053 -5.50961e-007 1.71323e-006 1.42225 -20.7324 69.955 21.3327 8.13649 25.2327 -3.48773 25.6394 74.5067 160.016 4.61223e-006 2.57698e-005 -0.583337 13.4515 -68.9473 12.2058 -6.45113e-007 2.87007e-007 -1.2721 16.9334 64.3292 -16.8665 -8.13649 25.2326 3.48773 
49.5344 59.0622 -4.43086 -8.17135 29.4005 10.0545 0.911787 0.838819 0.120134 1.82923 5.67377 0.0906529 1.83185 7.31835 0.060843 -5.36974 23.3788 -2.24857 6.68768 2.17218 -4.11919 60.6999 0.514842 0.153579 113.651 18.8346 -19.5047 -5.41128e-007 -1.99136e-006 -3.47127e-007 -4.03735 27.314 -1.21786 -6.83092e-006 7.88373e-006 -3 8.0301 -4.95136 0.697635 -61.3555 -4.5547 2.94444 -126.2 39.9336 31.0055 -1.34704e-005 1.12988e-005 1.07827e-005 3.64956 -0.0279484 1.99255 7.31411e-007 -2.98242e-006 3.01161 -8.03009 -4.95138 -0.697616 -1.09862 76.2827 179.026 180 1.52582e-005 179.501 -179.223 70.4478 176.064 -5.50961e-007 1.71323e-006 1.42067 -20.7343 69.9581 21.3356 8.13649 25.2327 -3.48773 25.6147 74.4819 160.036 4.61223e-006 2.57698e-005 -0.580174 13.3423 -68.8502 12.1067 -6.45113e-007 2.87007e-007 -1.26788 16.9356 64.3393 -16.8733 -8.13649 25.2326 3.48773 
49.5334 59.108 -4.38251 -8.18692 29.5526 10.0787 0.912407 0.838544 0.120037 1.83034 5.67306 0.0907435 1.83296 7.31764 0.0608444 -5.36799 23.3609 -2.26579 6.67367 2.10602 -4.13167 60.6274 0.499965 0.154059 113.737 18.8686 -19.5831 -5.41128e-007 -1.99136e-006 -3.47127e-007 -4.0345 27.1891 -1.22217 -6.83092e-006 7.88373e-006 -3 8.0301 -4.95136 0.697635 -61.2742 -4.55662 2.94005 -126.312 39.9065 31.1062 -1.34704e-005 1.12988e-005 1.07827e-005 3.64956 -0.0279497 1.99255 7.31411e-007 -2.98242e-006 3.01161 -8.03009 -4.95138 -0.697616 -1.13327 76.2132 179.037 180 1.52582e-005 179.504 -179.234 70.4101 176.076 -5.50961e-007 1.71323e-006 1.41902 -20.7364 69.9614 21.3388 8.13649 25.2327 -3.48773 25.5982 74.4576 160.05 4.61223e-006 2.57698e-005 -0.577034 13.2404 -68.7538 12.0134 -6.45113e-007 2.87007e-007 -1.26378 16.9381 64.3495 -16.8801 -8.13649 25.2326 3.48773 
49.5304 59.1435 -4.30421 -8.20282 29.7034 10.1022 0.913331 0.838247 0.119936 1.83193 5.67247 0.0908217 1.83456 7.31705 0.060836 -5.37478 23.3423 -2.27891 6.6689 2.04306 -4.14318 60.556 0.487699 0.155989 113.821 18.9035 -19.6589 -5.41128e-007 -1.99136e-006 -3.47127e-007 -4.03155 27.0608 -1.22659 -6.83092e-006 7.88373e-006 -3 8.0301 -4.95136 0.697635 -61.1995 -4.55848 2.93606 -126.418 39.8808 31.2007 -1.34704e-005 1.12988e-005 1.07827e-005 3.64957 -0.0279509 1.99255 7.31411e-007 -2.98242e-006 3.01161 -8.03009 -4.95138 -0.697616 -1.17336 76.1517 179.054 180 1.52582e-005 179.507 -179.245 70.3645 176.088 -5.50961e-007 1.71323e-006 1.4173 -20.7388 69.965 21.3424 8.13649 25.2327 -3.48773 25.5913 74.4335 160.057 4.61223e-006 2.57698e-005 -0.573919 13.1472 -68.6586 11.9267 -6.45113e-007 2.87007e-007 -1.25983 16.941 64.3597 -16.8869 -8.13649 25.2326 3.48773 
49.5524 59.1971 -4.25735 -8.21907 29.853 10.1249 0.914599 0.837897 0.119829 1.83406 5.67195 0.0908847 1.83669 7.31652 0.0608173 -5.39137 23.3228 -2.2873 6.67474 1.98375 -4.15358 60.4856 0.478282 0.159555 113.904 18.9391 -19.7321 -5.41128e-007 -1.99136e-006 -3.47127e-007 -4.02848 26.9287 -1.23113 -6.83092e-006 7.88373e-006 -3 8.0301 -4.95136 0.697635 -61.1321 -4.5603 2.93254 -126.516 39.8568 31.2883 -1.34704e-005 1.12988e-005 1.07827e-005 3.64957 -0.0279522 1.99255 7.31411e-007 -2.98242e-006 3.01161 -8.03009 -4.95138 -0.697616 -1.21955 76.0992 179.077 180 1.52582e-005 179.509 -179.255 70.31 176.1 -5.50961e-007 1.71323e-006 1.41551 -20.7415 69.9689 21.3464 8.13649 25.2327 -3.48773 25.5951 74.4093 160.057 4.61223e-006 2.57698e-005 -0.57083 13.0639 -68.5649 11.8476 -6.45113e-007 2.87007e-007 -1.25605 16.9441 64.37 -16.8937 -8.13649 25.2326 3.48773 
49.5397 59.2477 -4.20003 -8.23554 30.0012 10.1463 0.916246 0.837557 0.119716 1.83673 5.67167 0.0909414 1.83936 7.31625 0.0607929 -5.41788 23.3041 -2.29061 6.69066 1.92621 -4.16257 60.415 0.472053 0.165076 113.986 18.9755 -19.8032 -5.41128e-007 -1.99136e-006 -3.47127e-007 -4.02531 26.7925 -1.23581 -6.83092e-006 7.88373e-006 -3 8.0301 -4.95136 0.697635 -61.0719 -4.56224 2.92958 -126.607 39.834 31.3691 -1.34704e-005 1.12988e-005 1.07827e-005 3.64957 -0.0279534 1.99255 7.31411e-007 -2.98241e-006 3.01161 -8.03009 -4.95138 -0.697616 -1.27148 76.0564 179.107 180 1.52582e-005 179.512 -179.266 70.2457 176.112 -5.50961e-007 1.71323e-006 1.41359 -20.7448 69.9733 21.3509 8.13649 25.2327 -3.48773 25.6094 74.3866 160.05 4.61223e-006 2.57698e-005 -0.567761 12.9886 -68.4714 11.7746 -6.45113e-007 2.87007e-007 -1.25239 16.9476 64.3804 -16.9006 -8.13649 25.2326 3.48773 
49.5418 59.2911 -4.145 -8.25211 30.1478 10.1658 0.918252 0.837309 0.119595 1.83987 5.67182 0.0910017 1.8425 7.31639 0.0607671 -5.45294 23.2874 -2.28933 6.7147 1.86857 -4.1701 60.3438 0.468984 0.172566 114.066 19.0129 -19.8726 -5.41128e-007 -1.99136e-006 -3.47127e-007 -4.02205 26.6521 -1.24062 -6.83092e-006 7.88373e-006 -3 8.0301 -4.95136 0.697635 -61.0177 -4.56438 2.92715 -126.692 39.8119 31.4442 -1.34704e-005 1.12988e-005 1.07827e-005 3.64957 -0.0279545 1.99255 7.31411e-007 -2.98242e-006 3.01161 -8.03009 -4.95138 -0.697616 -1.32802 76.023 179.143 180 1.52582e-005 179.515 -179.28 70.1724 176.127 -5.50961e-007 1.71323e-006 1.41152 -20.7485 69.9782 21.3559 8.13649 25.2327 -3.48773 25.6323 74.3668 160.037 4.61223e-006 2.57698e-005 -0.564702 12.9186 -68.3767 11.7052 -6.45113e-007 2.87007e-007 -1.24876 16.9515 64.3909 -16.9076 -8.13649 25.2326 3.48773 
49.5372 59.3509 -4.09949 -8.26877 30.2931 10.1839 0.920574 0.83715 0.119467 1.84343 5.67234 0.091064 1.84606 7.31692 0.0607385 -5.49556 23.2722 -2.28403 6.74605 1.81124 -4.17642 60.2725 0.468764 0.181763 114.146 19.0515 -19.9401 -5.41128e-007 -1.99136e-006 -3.47127e-007 -4.01873 26.508 -1.24556 -6.83092e-006 7.88373e-006 -3 8.0301 -4.95136 0.697635 -60.9689 -4.56665 2.92518 -126.771 39.7906 31.514 -1.34704e-005 1.12988e-005 1.07827e-005 3.64958 -0.0279555 1.99255 7.31411e-007 -2.98242e-006 3.01161 -8.03009 -4.95138 -0.697616 -1.38882 75.9979 179.184 180 1.52582e-005 179.517 -179.297 70.091 176.144 -5.50961e-007 1.71323e-006 1.40931 -20.7526 69.9835 21.3614 8.13649 25.2327 -3.48773 25.663 74.3495 160.018 4.61223e-006 2.57698e-005 -0.561656 12.8536 -68.2811 11.6394 -6.45113e-007 2.87008e-007 -1.24519 16.9556 64.4016 -16.9148 -8.13649 25.2326 3.48773 
49.5524 59.3966 -4.03777 -8.28553 30.437 10.2007 0.923169 0.837076 0.119332 1.84737 5.6732 0.0911266 1.85001 7.31778 0.0607057 -5.54478 23.2579 -2.27531 6.78393 1.75465 -4.18174 60.2018 0.471081 0.192401 114.223 19.0912 -20.0053 -5.41128e-007 -1.99136e-006 -3.47127e-007 -4.01534 26.3603 -1.25061 -6.83092e-006 7.88373e-006 -3 8.0301 -4.95136 0.697635 -60.9251 -4.56896 2.92357 -126.845 39.7701 31.579 -1.34704e-005 1.12988e-005 1.07827e-005 3.64958 -0.0279563 1.99255 7.31411e-007 -2.98241e-006 3.01161 -8.03009 -4.95138 -0.697616 -1.45353 75.9801 179.231 180 1.52583e-005 179.52 -179.316 70.0027 176.163 -5.50961e-007 1.71323e-006 1.40699 -20.757 69.9891 21.3673 8.13649 25.2327 -3.48773 25.7007 74.3345 159.995 4.61223e-006 2.57698e-005 -0.558625 12.7931 -68.1849 11.577 -6.45113e-007 2.87007e-007 -1.24167 16.9599 64.4124 -16.922 -8.13649 25.2326 3.48773 
49.5502 59.4417 -3.98512 -8.30242 30.5796 10.2165 0.925994 0.837083 0.119192 1.85164 5.67436 0.0911882 1.85429 7.31893 0.0606674 -5.59961 23.2439 -2.26376 6.82756 1.69922 -4.18629 60.1322 0.475625 0.204217 114.3 19.1322 -20.0681 -5.41128e-007 -1.99136e-006 -3.47127e-007 -4.01189 26.2096 -1.25576 -6.83092e-006 7.88373e-006 -3 8.0301 -4.95136 0.697635 -60.8857 -4.57124 2.92225 -126.915 39.7505 31.6396 -1.34704e-005 1.12988e-005 1.07827e-005 3.64958 -0.0279572 1.99255 7.31411e-007 -2.98242e-006 3.01161 -8.03009 -4.95138 -0.697616 -1.52181 75.9687 179.281 180 1.52583e-005 179.522 -179.336 69.9084 176.183 -5.50961e-007 1.71323e-006 1.40457 -20.7617 69.995 21.3735 8.13649 25.2327 -3.48773 25.7445 74.3211 159.967 4.61223e-006 2.57698e-005 -0.55561 12.7369 -68.0883 11.5176 -6.45113e-007 2.87007e-007 -1.2382 16.9645 64.4233 -16.9293 -8.13649 25.2326 3.48773 
49.5649 59.4916 -3.92347 -8.31944 30.7211 10.2316 0.929006 0.837169 0.119046 1.8562 5.67577 0.0912469 1.85885 7.32035 0.0606221 -5.65909 23.2296 -2.24997 6.87614 1.64536 -4.19032 60.0644 0.482085 0.216947 114.374 19.1746 -20.1283 -5.41128e-007 -1.99136e-006 -3.47127e-007 -4.00841 26.056 -1.261 -6.83092e-006 7.88373e-006 -3 8.0301 -4.95136 0.697635 -60.8503 -4.57341 2.92113 -126.98 39.7317 31.6963 -1.34704e-005 1.12988e-005 1.07827e-005 3.64958 -0.027958 1.99255 7.31411e-007 -2.98242e-006 3.01161 -8.03009 -4.95138 -0.697616 -1.59331 75.9626 179.336 180 1.52583e-005 179.524 -179.357 69.8093 176.203 -5.50961e-007 1.71323e-006 1.40207 -20.7666 70.001 21.3798 8.13649 25.2327 -3.48773 25.7937 74.3092 159.936 4.61223e-006 2.57698e-005 -0.552614 12.6846 -67.9916 11.4612 -6.45113e-007 2.87007e-007 -1.23479 16.9692 64.4343 -16.9367 -8.13649 25.2326 3.48773 
